<svg xmlns="http://www.w3.org/2000/svg" xmlns:xlink="http://www.w3.org/1999/xlink" width="500" zoomAndPan="magnify" viewBox="0 0 375 89.249998" height="119" preserveAspectRatio="xMidYMid meet" version="1.0"><defs><g/></defs><g fill="#ffffff" fill-opacity="1"><g transform="translate(40.713967, 28.634374)"><g><path d="M 6.910156 -19.21875 L 18.105469 -19.21875 C 18.308594 -19.21875 18.441406 -19.351562 18.441406 -19.488281 L 18.441406 -23.332031 C 18.441406 -23.464844 18.308594 -23.601562 18.105469 -23.601562 L 2.730469 -23.601562 C 2.527344 -23.601562 2.394531 -23.464844 2.394531 -23.332031 L 2.394531 -0.269531 C 2.394531 -0.136719 2.527344 0 2.730469 0 L 6.574219 0 C 6.777344 0 6.910156 -0.136719 6.910156 -0.269531 L 6.910156 -9.609375 L 16.183594 -9.609375 C 16.351562 -9.609375 16.484375 -9.742188 16.484375 -9.878906 L 16.484375 -13.621094 C 16.484375 -13.753906 16.351562 -13.890625 16.183594 -13.890625 L 6.910156 -13.890625 Z M 6.910156 -19.21875 "/></g></g></g><g fill="#ffffff" fill-opacity="1"><g transform="translate(60.267397, 28.634374)"><g><path d="M 13.417969 -2.664062 L 14.394531 -0.167969 C 14.429688 -0.0664062 14.566406 0 14.664062 0 L 18.847656 0 C 19.082031 0 19.21875 -0.167969 19.117188 -0.371094 L 9.910156 -24.105469 C 9.8125 -24.339844 9.40625 -24.339844 9.304688 -24.105469 L 0.101562 -0.371094 C 0 -0.167969 0.136719 0 0.40625 0 L 4.550781 0 C 4.6875 0 4.820312 -0.0664062 4.855469 -0.167969 L 5.765625 -2.664062 Z M 7.214844 -6.640625 L 9.609375 -13.722656 L 11.96875 -6.640625 Z M 7.214844 -6.640625 "/></g></g></g><g fill="#ffffff" fill-opacity="1"><g transform="translate(79.483692, 28.634374)"><g><path d="M 18.40625 -16.855469 C 18.40625 -23.769531 10.417969 -23.601562 10.417969 -23.601562 L 2.730469 -23.601562 C 2.527344 -23.601562 2.394531 -23.464844 2.394531 -23.332031 L 2.394531 -0.269531 C 2.394531 -0.136719 2.527344 0 2.730469 0 L 10.417969 0 C 12.003906 0 18.746094 -0.304688 18.746094 -6.878906 C 18.746094 -6.878906 18.878906 -10.519531 15.136719 -11.800781 C 16.925781 -12.542969 18.40625 -14.09375 18.40625 -16.855469 Z M 6.878906 -13.992188 L 6.878906 -19.386719 L 10.417969 -19.386719 C 10.417969 -19.386719 13.890625 -19.417969 13.890625 -16.585938 C 13.890625 -13.992188 10.417969 -13.992188 10.417969 -13.992188 Z M 10.417969 -4.316406 L 6.878906 -4.316406 L 6.878906 -9.574219 L 10.417969 -9.574219 C 10.417969 -9.574219 14.226562 -9.777344 14.226562 -6.980469 C 14.226562 -4.71875 11.902344 -4.316406 10.417969 -4.316406 Z M 10.417969 -4.316406 "/></g></g></g><g fill="#ffffff" fill-opacity="1"><g transform="translate(99.812512, 28.634374)"><g><path d="M 14.835938 0 L 19.351562 0 C 19.589844 0 19.722656 -0.203125 19.589844 -0.40625 L 13.519531 -10.113281 C 15.8125 -10.820312 18.476562 -12.472656 18.476562 -16.621094 C 18.476562 -23.601562 10.453125 -23.601562 10.453125 -23.601562 L 2.765625 -23.601562 C 2.5625 -23.601562 2.425781 -23.464844 2.425781 -23.332031 L 2.425781 -19.453125 L 5.898438 -13.992188 L 2.765625 -13.992188 C 2.5625 -13.992188 2.425781 -13.855469 2.425781 -13.722656 L 2.425781 -0.269531 C 2.425781 -0.136719 2.5625 0 2.765625 0 L 6.609375 0 C 6.808594 0 6.945312 -0.136719 6.945312 -0.269531 L 6.945312 -9.609375 L 8.597656 -9.609375 L 14.53125 -0.136719 C 14.566406 -0.0664062 14.734375 0 14.835938 0 Z M 10.890625 -14.023438 L 7.621094 -19.21875 L 10.453125 -19.21875 C 11.226562 -19.21875 13.957031 -19.21875 13.957031 -16.621094 C 13.957031 -14.597656 12.171875 -14.058594 10.890625 -14.023438 Z M 10.890625 -14.023438 "/></g></g></g><g fill="#ffffff" fill-opacity="1"><g transform="translate(120.444753, 28.634374)"><g><path d="M 8.058594 -19.554688 L 10.28125 -19.554688 C 10.484375 -19.554688 10.621094 -19.6875 10.621094 -19.824219 L 10.621094 -23.332031 C 10.621094 -23.464844 10.484375 -23.601562 10.28125 -23.601562 L 1.28125 -23.601562 C 1.078125 -23.601562 0.945312 -23.464844 0.945312 -23.332031 L 0.945312 -19.824219 C 0.945312 -19.6875 1.078125 -19.554688 1.28125 -19.554688 L 3.539062 -19.554688 L 3.539062 -4.046875 L 1.144531 -4.046875 C 0.945312 -4.046875 0.808594 -3.910156 0.808594 -3.777344 L 0.808594 -0.269531 C 0.808594 -0.136719 0.945312 0 1.144531 0 L 10.417969 0 C 10.621094 0 10.753906 -0.136719 10.753906 -0.269531 L 10.753906 -3.777344 C 10.753906 -3.910156 10.621094 -4.046875 10.417969 -4.046875 L 8.058594 -4.046875 Z M 8.058594 -19.554688 "/></g></g></g><g fill="#ffffff" fill-opacity="1"><g transform="translate(132.244236, 28.634374)"><g><path d="M 14.933594 -0.269531 L 14.933594 -4.113281 C 14.933594 -4.246094 14.800781 -4.382812 14.597656 -4.382812 L 7.316406 -4.382812 L 14.867188 -23.230469 C 14.96875 -23.429688 14.835938 -23.601562 14.566406 -23.601562 L 1.144531 -23.601562 C 0.945312 -23.601562 0.808594 -23.464844 0.808594 -23.332031 L 0.808594 -19.488281 C 0.808594 -19.351562 0.945312 -19.21875 1.144531 -19.21875 L 8.429688 -19.21875 L 0.875 -0.371094 C 0.777344 -0.167969 0.910156 0 1.179688 0 L 14.597656 0 C 14.800781 0 14.933594 -0.136719 14.933594 -0.269531 Z M 14.933594 -0.269531 "/></g></g></g><g fill="#ffffff" fill-opacity="1"><g transform="translate(148.257819, 28.634374)"><g><path d="M 8.058594 -19.554688 L 10.28125 -19.554688 C 10.484375 -19.554688 10.621094 -19.6875 10.621094 -19.824219 L 10.621094 -23.332031 C 10.621094 -23.464844 10.484375 -23.601562 10.28125 -23.601562 L 1.28125 -23.601562 C 1.078125 -23.601562 0.945312 -23.464844 0.945312 -23.332031 L 0.945312 -19.824219 C 0.945312 -19.6875 1.078125 -19.554688 1.28125 -19.554688 L 3.539062 -19.554688 L 3.539062 -4.046875 L 1.144531 -4.046875 C 0.945312 -4.046875 0.808594 -3.910156 0.808594 -3.777344 L 0.808594 -0.269531 C 0.808594 -0.136719 0.945312 0 1.144531 0 L 10.417969 0 C 10.621094 0 10.753906 -0.136719 10.753906 -0.269531 L 10.753906 -3.777344 C 10.753906 -3.910156 10.621094 -4.046875 10.417969 -4.046875 L 8.058594 -4.046875 Z M 8.058594 -19.554688 "/></g></g></g><g fill="#ffffff" fill-opacity="1"><g transform="translate(160.057303, 28.634374)"><g><path d="M 10.550781 -6.269531 C 15.441406 -6.269531 19.453125 -10.25 19.453125 -15.105469 C 19.453125 -19.925781 15.441406 -23.9375 10.550781 -23.9375 C 5.664062 -23.9375 1.652344 -19.925781 1.652344 -15.105469 C 1.652344 -10.25 5.664062 -6.269531 10.550781 -6.269531 Z M 10.550781 -19.589844 C 13.015625 -19.589844 14.96875 -17.597656 14.96875 -15.105469 C 14.96875 -12.574219 13.015625 -10.621094 10.550781 -10.621094 C 8.125 -10.621094 6.136719 -12.574219 6.136719 -15.105469 C 6.136719 -17.597656 8.125 -19.589844 10.550781 -19.589844 Z M 18.40625 -0.269531 L 18.40625 -4.078125 C 18.40625 -4.214844 18.273438 -4.347656 18.070312 -4.347656 L 2.867188 -4.347656 C 2.664062 -4.347656 2.527344 -4.214844 2.527344 -4.078125 L 2.527344 -0.269531 C 2.527344 -0.136719 2.664062 0 2.867188 0 L 18.070312 0 C 18.273438 0 18.40625 -0.136719 18.40625 -0.269531 Z M 18.40625 -0.269531 "/></g></g></g><g fill="#ffffff" fill-opacity="1"><g transform="translate(181.566073, 28.634374)"><g/></g></g><g fill="#ffffff" fill-opacity="1"><g transform="translate(193.196994, 28.634374)"><g><path d="M 9.101562 0.335938 C 12.980469 0.335938 16.621094 -2.191406 16.621094 -6.742188 C 16.621094 -9.574219 15.238281 -11.96875 12.675781 -13.148438 C 10.957031 -13.957031 9.269531 -13.957031 9.101562 -13.957031 C 7.550781 -13.957031 6.070312 -14.867188 6.070312 -16.621094 C 6.070312 -18.578125 7.449219 -19.554688 9.101562 -19.554688 C 10.6875 -19.554688 12.003906 -18.746094 12.070312 -17.027344 C 12.070312 -16.925781 12.238281 -16.789062 12.40625 -16.789062 L 16.214844 -16.789062 C 16.417969 -16.789062 16.554688 -16.925781 16.554688 -17.027344 C 16.484375 -21.140625 13.25 -23.9375 9.101562 -23.9375 C 5.226562 -23.9375 1.550781 -21.171875 1.550781 -16.621094 C 1.550781 -13.789062 2.96875 -11.664062 5.496094 -10.484375 C 7.25 -9.675781 8.902344 -9.675781 9.101562 -9.675781 C 10.484375 -9.609375 12.136719 -8.53125 12.136719 -6.742188 C 12.136719 -5.125 10.722656 -4.046875 9.101562 -4.046875 C 7.550781 -4.046875 6.136719 -4.921875 6.070312 -6.640625 C 6.070312 -6.777344 5.898438 -6.910156 5.730469 -6.910156 L 1.886719 -6.910156 C 1.6875 -6.910156 1.550781 -6.777344 1.550781 -6.640625 C 1.617188 -2.191406 4.921875 0.234375 9.101562 0.335938 Z M 9.101562 0.335938 "/></g></g></g><g fill="#ffffff" fill-opacity="1"><g transform="translate(211.503041, 28.634374)"><g><path d="M 13.417969 -2.664062 L 14.394531 -0.167969 C 14.429688 -0.0664062 14.566406 0 14.664062 0 L 18.847656 0 C 19.082031 0 19.21875 -0.167969 19.117188 -0.371094 L 9.910156 -24.105469 C 9.8125 -24.339844 9.40625 -24.339844 9.304688 -24.105469 L 0.101562 -0.371094 C 0 -0.167969 0.136719 0 0.40625 0 L 4.550781 0 C 4.6875 0 4.820312 -0.0664062 4.855469 -0.167969 L 5.765625 -2.664062 Z M 7.214844 -6.640625 L 9.609375 -13.722656 L 11.96875 -6.640625 Z M 7.214844 -6.640625 "/></g></g></g><g fill="#ffffff" fill-opacity="1"><g transform="translate(230.719335, 28.634374)"><g><path d="M 22.285156 -0.269531 L 22.285156 -23.332031 C 22.285156 -23.464844 22.148438 -23.601562 21.949219 -23.601562 L 18.136719 -23.601562 C 17.9375 -23.601562 17.800781 -23.464844 17.800781 -23.332031 L 17.800781 -7.957031 L 6.910156 -23.5 C 6.878906 -23.566406 6.710938 -23.601562 6.640625 -23.601562 L 2.730469 -23.601562 C 2.5625 -23.601562 2.425781 -23.464844 2.425781 -23.332031 L 2.425781 -0.269531 C 2.425781 -0.136719 2.5625 0 2.730469 0 L 6.609375 0 C 6.808594 0 6.945312 -0.136719 6.945312 -0.269531 L 6.945312 -15.644531 L 17.800781 -0.101562 C 17.835938 -0.0351562 18.003906 0 18.070312 0 L 21.949219 0 C 22.148438 0 22.285156 -0.136719 22.285156 -0.269531 Z M 22.285156 -0.269531 "/></g></g></g><g fill="#ffffff" fill-opacity="1"><g transform="translate(255.734237, 28.634374)"><g><path d="M 14.597656 -19.824219 L 14.597656 -23.332031 C 14.597656 -23.464844 14.464844 -23.601562 14.261719 -23.601562 L 0.742188 -23.601562 C 0.539062 -23.601562 0.40625 -23.464844 0.40625 -23.332031 L 0.40625 -19.824219 C 0.40625 -19.6875 0.539062 -19.554688 0.742188 -19.554688 L 5.257812 -19.554688 L 5.257812 -0.269531 C 5.257812 -0.136719 5.394531 0 5.597656 0 L 9.40625 0 C 9.609375 0 9.742188 -0.136719 9.742188 -0.269531 L 9.742188 -19.554688 L 14.261719 -19.554688 C 14.464844 -19.554688 14.597656 -19.6875 14.597656 -19.824219 Z M 14.597656 -19.824219 "/></g></g></g><g fill="#ffffff" fill-opacity="1"><g transform="translate(270.837573, 28.634374)"><g><path d="M 13.417969 -2.664062 L 14.394531 -0.167969 C 14.429688 -0.0664062 14.566406 0 14.664062 0 L 18.847656 0 C 19.082031 0 19.21875 -0.167969 19.117188 -0.371094 L 9.910156 -24.105469 C 9.8125 -24.339844 9.40625 -24.339844 9.304688 -24.105469 L 0.101562 -0.371094 C 0 -0.167969 0.136719 0 0.40625 0 L 4.550781 0 C 4.6875 0 4.820312 -0.0664062 4.855469 -0.167969 L 5.765625 -2.664062 Z M 7.214844 -6.640625 L 9.609375 -13.722656 L 11.96875 -6.640625 Z M 7.214844 -6.640625 "/></g></g></g><g fill="#ffffff" fill-opacity="1"><g transform="translate(290.053867, 28.634374)"><g><path d="M 22.285156 -0.269531 L 22.285156 -23.332031 C 22.285156 -23.464844 22.148438 -23.601562 21.949219 -23.601562 L 18.136719 -23.601562 C 17.9375 -23.601562 17.800781 -23.464844 17.800781 -23.332031 L 17.800781 -7.957031 L 6.910156 -23.5 C 6.878906 -23.566406 6.710938 -23.601562 6.640625 -23.601562 L 2.730469 -23.601562 C 2.5625 -23.601562 2.425781 -23.464844 2.425781 -23.332031 L 2.425781 -0.269531 C 2.425781 -0.136719 2.5625 0 2.730469 0 L 6.609375 0 C 6.808594 0 6.945312 -0.136719 6.945312 -0.269531 L 6.945312 -15.644531 L 17.800781 -0.101562 C 17.835938 -0.0351562 18.003906 0 18.070312 0 L 21.949219 0 C 22.148438 0 22.285156 -0.136719 22.285156 -0.269531 Z M 22.285156 -0.269531 "/></g></g></g><g fill="#ffffff" fill-opacity="1"><g transform="translate(315.068769, 28.634374)"><g><path d="M 13.417969 -2.664062 L 14.394531 -0.167969 C 14.429688 -0.0664062 14.566406 0 14.664062 0 L 18.847656 0 C 19.082031 0 19.21875 -0.167969 19.117188 -0.371094 L 9.910156 -24.105469 C 9.8125 -24.339844 9.40625 -24.339844 9.304688 -24.105469 L 0.101562 -0.371094 C 0 -0.167969 0.136719 0 0.40625 0 L 4.550781 0 C 4.6875 0 4.820312 -0.0664062 4.855469 -0.167969 L 5.765625 -2.664062 Z M 7.214844 -6.640625 L 9.609375 -13.722656 L 11.96875 -6.640625 Z M 7.214844 -6.640625 "/></g></g></g><g fill="#ffffff" fill-opacity="1"><g transform="translate(104.490525, 75.490621)"><g><path d="M 18.339844 -0.0664062 L 21.105469 -2.796875 C 21.207031 -2.898438 21.207031 -3.101562 21.105469 -3.203125 L 17.699219 -6.574219 L 17.734375 -6.640625 C 17.867188 -7.113281 17.96875 -7.484375 17.96875 -8.125 L 17.96875 -10.148438 L 20.53125 -10.148438 C 20.734375 -10.148438 20.867188 -10.28125 20.867188 -10.417969 L 20.867188 -13.554688 C 20.867188 -13.6875 20.734375 -13.824219 20.53125 -13.824219 L 14.734375 -13.824219 C 14.53125 -13.824219 14.394531 -13.6875 14.394531 -13.554688 L 14.394531 -9.507812 L 11.363281 -12.675781 C 12.878906 -13.824219 14.09375 -15.710938 14.09375 -17.734375 C 14.09375 -21.039062 11.394531 -23.769531 7.992188 -23.769531 C 4.6875 -23.769531 1.921875 -21.039062 1.921875 -17.734375 C 1.921875 -16.148438 2.496094 -14.429688 3.84375 -13.316406 C 0.84375 -10.417969 0.269531 -6.304688 2.460938 -2.96875 C 3.910156 -0.945312 6.269531 0.269531 9.238281 0.269531 C 11.53125 0.269531 13.789062 -0.707031 15.40625 -2.527344 L 17.902344 -0.0664062 C 18.035156 0.0351562 18.207031 0.0351562 18.339844 -0.0664062 Z M 7.992188 -19.824219 C 9.136719 -19.824219 10.011719 -18.878906 10.011719 -17.734375 C 10.011719 -16.585938 9.136719 -15.609375 7.992188 -15.609375 C 6.878906 -15.609375 6 -16.585938 6 -17.734375 C 6 -18.878906 6.878906 -19.824219 7.992188 -19.824219 Z M 7.179688 -10.722656 L 12.441406 -5.597656 C 11.597656 -4.617188 10.519531 -4.148438 9.40625 -4.148438 C 5.5625 -4.148438 4.148438 -8.328125 7.179688 -10.722656 Z M 7.179688 -10.722656 "/></g></g></g><g fill="#ffffff" fill-opacity="1"><g transform="translate(126.504984, 75.490621)"><g/></g></g><g fill="#ffffff" fill-opacity="1"><g transform="translate(138.135905, 75.490621)"><g><path d="M 6.910156 -19.21875 L 18.105469 -19.21875 C 18.308594 -19.21875 18.441406 -19.351562 18.441406 -19.488281 L 18.441406 -23.332031 C 18.441406 -23.464844 18.308594 -23.601562 18.105469 -23.601562 L 2.730469 -23.601562 C 2.527344 -23.601562 2.394531 -23.464844 2.394531 -23.332031 L 2.394531 -0.269531 C 2.394531 -0.136719 2.527344 0 2.730469 0 L 6.574219 0 C 6.777344 0 6.910156 -0.136719 6.910156 -0.269531 L 6.910156 -9.609375 L 16.183594 -9.609375 C 16.351562 -9.609375 16.484375 -9.742188 16.484375 -9.878906 L 16.484375 -13.621094 C 16.484375 -13.753906 16.351562 -13.890625 16.183594 -13.890625 L 6.910156 -13.890625 Z M 6.910156 -19.21875 "/></g></g></g><g fill="#ffffff" fill-opacity="1"><g transform="translate(157.689335, 75.490621)"><g><path d="M 14.835938 0 L 19.351562 0 C 19.589844 0 19.722656 -0.203125 19.589844 -0.40625 L 13.519531 -10.113281 C 15.8125 -10.820312 18.476562 -12.472656 18.476562 -16.621094 C 18.476562 -23.601562 10.453125 -23.601562 10.453125 -23.601562 L 2.765625 -23.601562 C 2.5625 -23.601562 2.425781 -23.464844 2.425781 -23.332031 L 2.425781 -19.453125 L 5.898438 -13.992188 L 2.765625 -13.992188 C 2.5625 -13.992188 2.425781 -13.855469 2.425781 -13.722656 L 2.425781 -0.269531 C 2.425781 -0.136719 2.5625 0 2.765625 0 L 6.609375 0 C 6.808594 0 6.945312 -0.136719 6.945312 -0.269531 L 6.945312 -9.609375 L 8.597656 -9.609375 L 14.53125 -0.136719 C 14.566406 -0.0664062 14.734375 0 14.835938 0 Z M 10.890625 -14.023438 L 7.621094 -19.21875 L 10.453125 -19.21875 C 11.226562 -19.21875 13.957031 -19.21875 13.957031 -16.621094 C 13.957031 -14.597656 12.171875 -14.058594 10.890625 -14.023438 Z M 10.890625 -14.023438 "/></g></g></g><g fill="#ffffff" fill-opacity="1"><g transform="translate(178.321576, 75.490621)"><g><path d="M 6.910156 -19.316406 L 17.800781 -19.316406 C 18.003906 -19.316406 18.136719 -19.453125 18.136719 -19.589844 L 18.136719 -23.332031 C 18.136719 -23.464844 18.003906 -23.601562 17.800781 -23.601562 L 2.730469 -23.601562 C 2.527344 -23.601562 2.394531 -23.464844 2.394531 -23.332031 L 2.394531 -0.269531 C 2.394531 -0.136719 2.527344 0 2.730469 0 L 18.105469 0 C 18.308594 0 18.441406 -0.136719 18.441406 -0.269531 L 18.441406 -4.113281 C 18.441406 -4.246094 18.308594 -4.382812 18.105469 -4.382812 L 6.910156 -4.382812 L 6.910156 -9.710938 L 16.183594 -9.710938 C 16.351562 -9.710938 16.484375 -9.84375 16.484375 -9.980469 L 16.484375 -13.722656 C 16.484375 -13.855469 16.351562 -13.992188 16.183594 -13.992188 L 6.910156 -13.992188 Z M 6.910156 -19.316406 "/></g></g></g><g fill="#ffffff" fill-opacity="1"><g transform="translate(198.144709, 75.490621)"><g><path d="M 6.910156 -19.316406 L 17.800781 -19.316406 C 18.003906 -19.316406 18.136719 -19.453125 18.136719 -19.589844 L 18.136719 -23.332031 C 18.136719 -23.464844 18.003906 -23.601562 17.800781 -23.601562 L 2.730469 -23.601562 C 2.527344 -23.601562 2.394531 -23.464844 2.394531 -23.332031 L 2.394531 -0.269531 C 2.394531 -0.136719 2.527344 0 2.730469 0 L 18.105469 0 C 18.308594 0 18.441406 -0.136719 18.441406 -0.269531 L 18.441406 -4.113281 C 18.441406 -4.246094 18.308594 -4.382812 18.105469 -4.382812 L 6.910156 -4.382812 L 6.910156 -9.710938 L 16.183594 -9.710938 C 16.351562 -9.710938 16.484375 -9.84375 16.484375 -9.980469 L 16.484375 -13.722656 C 16.484375 -13.855469 16.351562 -13.992188 16.183594 -13.992188 L 6.910156 -13.992188 Z M 6.910156 -19.316406 "/></g></g></g><g fill="#ffffff" fill-opacity="1"><g transform="translate(217.967842, 75.490621)"><g><path d="M 13.417969 -2.664062 L 14.394531 -0.167969 C 14.429688 -0.0664062 14.566406 0 14.664062 0 L 18.847656 0 C 19.082031 0 19.21875 -0.167969 19.117188 -0.371094 L 9.910156 -24.105469 C 9.8125 -24.339844 9.40625 -24.339844 9.304688 -24.105469 L 0.101562 -0.371094 C 0 -0.167969 0.136719 0 0.40625 0 L 4.550781 0 C 4.6875 0 4.820312 -0.0664062 4.855469 -0.167969 L 5.765625 -2.664062 Z M 7.214844 -6.640625 L 9.609375 -13.722656 L 11.96875 -6.640625 Z M 7.214844 -6.640625 "/></g></g></g><g fill="#ffffff" fill-opacity="1"><g transform="translate(237.184137, 75.490621)"><g><path d="M 10.550781 -6.269531 C 15.441406 -6.269531 19.453125 -10.25 19.453125 -15.105469 C 19.453125 -19.925781 15.441406 -23.9375 10.550781 -23.9375 C 5.664062 -23.9375 1.652344 -19.925781 1.652344 -15.105469 C 1.652344 -10.25 5.664062 -6.269531 10.550781 -6.269531 Z M 10.550781 -19.589844 C 13.015625 -19.589844 14.96875 -17.597656 14.96875 -15.105469 C 14.96875 -12.574219 13.015625 -10.621094 10.550781 -10.621094 C 8.125 -10.621094 6.136719 -12.574219 6.136719 -15.105469 C 6.136719 -17.597656 8.125 -19.589844 10.550781 -19.589844 Z M 18.40625 -0.269531 L 18.40625 -4.078125 C 18.40625 -4.214844 18.273438 -4.347656 18.070312 -4.347656 L 2.867188 -4.347656 C 2.664062 -4.347656 2.527344 -4.214844 2.527344 -4.078125 L 2.527344 -0.269531 C 2.527344 -0.136719 2.664062 0 2.867188 0 L 18.070312 0 C 18.273438 0 18.40625 -0.136719 18.40625 -0.269531 Z M 18.40625 -0.269531 "/></g></g></g><g fill="#ffffff" fill-opacity="1"><g transform="translate(258.692907, 75.490621)"><g><path d="M 8.058594 -19.554688 L 10.28125 -19.554688 C 10.484375 -19.554688 10.621094 -19.6875 10.621094 -19.824219 L 10.621094 -23.332031 C 10.621094 -23.464844 10.484375 -23.601562 10.28125 -23.601562 L 1.28125 -23.601562 C 1.078125 -23.601562 0.945312 -23.464844 0.945312 -23.332031 L 0.945312 -19.824219 C 0.945312 -19.6875 1.078125 -19.554688 1.28125 -19.554688 L 3.539062 -19.554688 L 3.539062 -4.046875 L 1.144531 -4.046875 C 0.945312 -4.046875 0.808594 -3.910156 0.808594 -3.777344 L 0.808594 -0.269531 C 0.808594 -0.136719 0.945312 0 1.144531 0 L 10.417969 0 C 10.621094 0 10.753906 -0.136719 10.753906 -0.269531 L 10.753906 -3.777344 C 10.753906 -3.910156 10.621094 -4.046875 10.417969 -4.046875 L 8.058594 -4.046875 Z M 8.058594 -19.554688 "/></g></g></g></svg>