<svg xmlns="http://www.w3.org/2000/svg" xmlns:xlink="http://www.w3.org/1999/xlink" width="500" zoomAndPan="magnify" viewBox="0 0 375 89.249998" height="119" preserveAspectRatio="xMidYMid meet" version="1.0"><defs><g/></defs><g fill="#ffffff" fill-opacity="1"><g transform="translate(18.703616, 63.218747)"><g><path d="M 33.320312 -9.667969 L 15.171875 -9.667969 L 15.171875 -51.46875 C 15.171875 -51.765625 14.875 -52.0625 14.503906 -52.0625 L 5.949219 -52.0625 C 5.503906 -52.0625 5.207031 -51.765625 5.207031 -51.46875 L 5.207031 -0.59375 C 5.207031 -0.296875 5.503906 0 5.949219 0 L 33.320312 0 C 33.765625 0 34.0625 -0.296875 34.0625 -0.59375 L 34.0625 -9.074219 C 34.0625 -9.371094 33.765625 -9.667969 33.320312 -9.667969 Z M 33.320312 -9.667969 "/></g></g></g><g fill="#ffffff" fill-opacity="1"><g transform="translate(55.965448, 63.218747)"><g><path d="M 48.34375 -52.0625 L 6.023438 -52.0625 C 5.652344 -52.0625 5.355469 -51.765625 5.355469 -51.46875 L 5.355469 -21.046875 C 5.355469 -20.527344 5.429688 -15.46875 7.957031 -10.414062 C 11.527344 -3.199219 18.371094 0.742188 27.222656 0.742188 C 36.070312 0.742188 42.839844 -3.273438 46.484375 -10.414062 C 49.011719 -15.46875 49.085938 -20.527344 49.085938 -21.046875 L 49.085938 -51.46875 C 49.085938 -51.765625 48.789062 -52.0625 48.34375 -52.0625 Z M 37.484375 -14.578125 C 35.476562 -10.785156 32.128906 -8.925781 27.222656 -8.925781 C 22.3125 -8.925781 18.964844 -10.785156 16.957031 -14.578125 C 15.320312 -17.703125 15.246094 -21.046875 15.246094 -21.046875 L 15.246094 -43.136719 L 39.195312 -43.136719 L 39.195312 -21.121094 C 39.195312 -21.046875 39.121094 -17.703125 37.484375 -14.578125 Z M 37.484375 -14.578125 "/></g></g></g><g fill="#ffffff" fill-opacity="1"><g transform="translate(111.002888, 63.218747)"><g><path d="M 18.816406 -26.03125 L 0.96875 -0.96875 C 0.59375 -0.519531 0.890625 0 1.488281 0 L 11.898438 0 C 12.046875 0 12.421875 -0.0742188 12.496094 -0.222656 L 24.914062 -17.550781 L 37.261719 -0.222656 C 37.335938 -0.0742188 37.707031 0 37.855469 0 L 48.269531 0 C 48.9375 0 49.234375 -0.519531 48.863281 -0.96875 C 42.914062 -9.222656 36.964844 -17.777344 30.941406 -26.03125 L 48.863281 -51.09375 C 49.234375 -51.542969 48.9375 -52.0625 48.269531 -52.0625 L 37.855469 -52.0625 C 37.707031 -52.0625 37.335938 -51.988281 37.261719 -51.839844 L 24.914062 -34.511719 L 12.496094 -51.839844 C 12.421875 -51.988281 12.046875 -52.0625 11.898438 -52.0625 L 1.488281 -52.0625 C 0.890625 -52.0625 0.59375 -51.542969 0.96875 -51.09375 C 6.917969 -42.839844 12.867188 -34.285156 18.816406 -26.03125 Z M 18.816406 -26.03125 "/></g></g></g><g fill="#ffffff" fill-opacity="1"><g transform="translate(161.131585, 63.218747)"><g><path d="M 29.601562 -5.875 L 31.757812 -0.371094 C 31.832031 -0.148438 32.128906 0 32.351562 0 L 41.574219 0 C 42.097656 0 42.394531 -0.371094 42.171875 -0.816406 L 21.867188 -53.179688 C 21.644531 -53.699219 20.75 -53.699219 20.527344 -53.179688 L 0.222656 -0.816406 C 0 -0.371094 0.296875 0 0.890625 0 L 10.039062 0 C 10.339844 0 10.636719 -0.148438 10.710938 -0.371094 L 12.71875 -5.875 Z M 15.917969 -14.652344 L 21.195312 -30.269531 L 26.402344 -14.652344 Z M 15.917969 -14.652344 "/></g></g></g><g fill="#ffffff" fill-opacity="1"><g transform="translate(203.525287, 63.218747)"><g><path d="M 49.160156 -0.59375 L 49.160156 -51.46875 C 49.160156 -51.765625 48.863281 -52.0625 48.417969 -52.0625 L 40.015625 -52.0625 C 39.566406 -52.0625 39.269531 -51.765625 39.269531 -51.46875 L 39.269531 -17.550781 L 15.246094 -51.839844 C 15.171875 -51.988281 14.800781 -52.0625 14.652344 -52.0625 L 6.023438 -52.0625 C 5.652344 -52.0625 5.355469 -51.765625 5.355469 -51.46875 L 5.355469 -0.59375 C 5.355469 -0.296875 5.652344 0 6.023438 0 L 14.578125 0 C 15.023438 0 15.320312 -0.296875 15.320312 -0.59375 L 15.320312 -34.511719 L 39.269531 -0.222656 C 39.34375 -0.0742188 39.714844 0 39.863281 0 L 48.417969 0 C 48.863281 0 49.160156 -0.296875 49.160156 -0.59375 Z M 49.160156 -0.59375 "/></g></g></g><g fill="#ffffff" fill-opacity="1"><g transform="translate(258.711486, 63.218747)"><g><path d="M 49.160156 -0.59375 L 49.160156 -51.46875 C 49.160156 -51.765625 48.863281 -52.0625 48.417969 -52.0625 L 40.015625 -52.0625 C 39.566406 -52.0625 39.269531 -51.765625 39.269531 -51.46875 L 39.269531 -17.550781 L 15.246094 -51.839844 C 15.171875 -51.988281 14.800781 -52.0625 14.652344 -52.0625 L 6.023438 -52.0625 C 5.652344 -52.0625 5.355469 -51.765625 5.355469 -51.46875 L 5.355469 -0.59375 C 5.355469 -0.296875 5.652344 0 6.023438 0 L 14.578125 0 C 15.023438 0 15.320312 -0.296875 15.320312 -0.59375 L 15.320312 -34.511719 L 39.269531 -0.222656 C 39.34375 -0.0742188 39.714844 0 39.863281 0 L 48.417969 0 C 48.863281 0 49.160156 -0.296875 49.160156 -0.59375 Z M 49.160156 -0.59375 "/></g></g></g><g fill="#ffffff" fill-opacity="1"><g transform="translate(313.897673, 63.218747)"><g><path d="M 29.601562 -5.875 L 31.757812 -0.371094 C 31.832031 -0.148438 32.128906 0 32.351562 0 L 41.574219 0 C 42.097656 0 42.394531 -0.371094 42.171875 -0.816406 L 21.867188 -53.179688 C 21.644531 -53.699219 20.75 -53.699219 20.527344 -53.179688 L 0.222656 -0.816406 C 0 -0.371094 0.296875 0 0.890625 0 L 10.039062 0 C 10.339844 0 10.636719 -0.148438 10.710938 -0.371094 L 12.71875 -5.875 Z M 15.917969 -14.652344 L 21.195312 -30.269531 L 26.402344 -14.652344 Z M 15.917969 -14.652344 "/></g></g></g></svg>